<svg width="24" height="24" viewBox="0 0 24 24" fill="none" xmlns="http://www.w3.org/2000/svg">
<path d="M0 2C0 0.89543 0.895431 0 2 0H18C19.1046 0 20 0.895431 20 2V22C20 23.1046 19.1046 24 18 24H2C0.895431 24 0 23.1046 0 22V2Z" fill="#6291F7"/>
<path d="M18.2222 7.44445C18.2222 6.6467 18.8689 6 19.6666 6H22.5555C23.3532 6 23.9999 6.6467 23.9999 7.44444V10.3333C23.9999 11.1311 23.3532 11.7778 22.5555 11.7778H19.6666C18.8689 11.7778 18.2222 11.1311 18.2222 10.3333V7.44445Z" fill="#FD6D0A"/>
<path d="M11 7.44445C11 6.6467 11.6467 6 12.4444 6H15.3333C16.1311 6 16.7778 6.6467 16.7778 7.44444V10.3333C16.7778 11.1311 16.1311 11.7778 15.3333 11.7778H12.4444C11.6467 11.7778 11 11.1311 11 10.3333V7.44445Z" fill="#001529"/>
<path d="M18.2222 14.6666C18.2222 13.8689 18.8689 13.2222 19.6666 13.2222H22.5555C23.3532 13.2222 23.9999 13.8689 23.9999 14.6666V17.5555C23.9999 18.3532 23.3532 18.9999 22.5555 18.9999H19.6666C18.8689 18.9999 18.2222 18.3532 18.2222 17.5555V14.6666Z" fill="#001529"/>
<path d="M11 14.6666C11 13.8689 11.6467 13.2222 12.4444 13.2222H15.3333C16.1311 13.2222 16.7778 13.8689 16.7778 14.6666V17.5555C16.7778 18.3532 16.1311 18.9999 15.3333 18.9999H12.4444C11.6467 18.9999 11 18.3532 11 17.5555V14.6666Z" fill="#001529"/>
</svg>
