<svg width="24" height="25" viewBox="0 0 24 25" fill="none" xmlns="http://www.w3.org/2000/svg">
<path d="M5.08297 10.5935C2.27605 10.5935 0.000584438 8.31797 0.000584347 5.51098C0.000584256 2.70399 2.27605 0.428467 5.08297 0.428467C7.8899 0.428467 10.1654 2.70399 10.1654 5.51098C10.1654 8.31797 7.8899 10.5935 5.08297 10.5935Z" fill="#001529"/>
<path d="M5.08239 24.146C2.27546 24.146 9.05201e-08 21.8705 0 19.0635C-9.05201e-08 16.2565 2.27546 13.981 5.08239 13.981C7.88931 13.981 10.1648 16.2565 10.1648 19.0635C10.1648 21.8705 7.88931 24.146 5.08239 24.146Z" fill="#6291F7"/>
<path d="M18.9176 24.4285C16.1107 24.4285 13.8352 22.1529 13.8352 19.346C13.8352 16.539 16.1107 14.2634 18.9176 14.2634C21.7245 14.2634 24 16.539 24 19.346C24 22.153 21.7245 24.4285 18.9176 24.4285Z" fill="#FD6D0A"/>
<path d="M18.6351 10.5935C15.8282 10.5935 13.5527 8.31797 13.5527 5.51098C13.5527 2.70398 15.8282 0.428467 18.6351 0.428467C21.442 0.428467 23.7175 2.70399 23.7175 5.51098C23.7175 8.31797 21.442 10.5935 18.6351 10.5935Z" fill="#6291F7"/>
</svg>
