<svg width="24" height="25" viewBox="0 0 24 25" fill="none" xmlns="http://www.w3.org/2000/svg">
<g clip-path="url(#clip0_758_156)">
<path d="M0 2.14282C0 1.03825 0.895431 0.142822 2 0.142822H12.5C13.6046 0.142822 14.5 1.03825 14.5 2.14282V12.6428C14.5 13.7474 13.6046 14.6428 12.5 14.6428H2C0.895431 14.6428 0 13.7474 0 12.6428V2.14282Z" fill="#6291F7"/>
<path d="M9 11.1428C9 10.0383 9.89543 9.14282 11 9.14282H21.5C22.6046 9.14282 23.5 10.0383 23.5 11.1428V21.6428C23.5 22.7474 22.6046 23.6428 21.5 23.6428H11C9.89543 23.6428 9 22.7474 9 21.6428V11.1428Z" fill="#2789FD"/>
<path fill-rule="evenodd" clip-rule="evenodd" d="M14.5 9.14282V12.6428C14.5 13.7474 13.6046 14.6428 12.5 14.6428H9V11.1428C9 10.0383 9.89543 9.14282 11 9.14282H14.5Z" fill="#001529"/>
</g>
<defs>
<clipPath id="clip0_758_156">
<rect width="24" height="24" fill="white" transform="translate(0 0.142822)"/>
</clipPath>
</defs>
</svg>
