<svg width="24" height="19" viewBox="0 0 24 19" fill="none" xmlns="http://www.w3.org/2000/svg">
<path d="M0.95304 14.8394C-1.00888 11.4412 0.155412 7.09603 3.55355 5.13411C6.95169 3.17219 11.2969 4.33648 13.2588 7.73462C15.2207 11.1328 14.0564 15.478 10.6583 17.4399C7.26015 19.4018 2.91496 18.2375 0.95304 14.8394Z" fill="#6291F7"/>
<path d="M7.90307 10.8268C6.26814 7.99497 7.23838 4.37398 10.0702 2.73905C12.9019 1.10412 16.5229 2.07436 18.1579 4.90614C19.7928 7.73793 18.8226 11.3589 15.9908 12.9938C13.159 14.6288 9.538 13.6585 7.90307 10.8268Z" fill="#001529"/>
<path d="M14.6872 3.51177C15.3643 0.985015 17.9615 -0.514475 20.4882 0.162567C23.015 0.83961 24.5145 3.4368 23.8374 5.96356C23.1604 8.49032 20.5632 9.98981 18.0364 9.31276C15.5097 8.63572 14.0102 6.03853 14.6872 3.51177Z" fill="#2789FD"/>
</svg>
