<svg width="24" height="25" viewBox="0 0 24 25" fill="none" xmlns="http://www.w3.org/2000/svg">
<g clip-path="url(#clip0_758_151)">
<path d="M0 4.01772C0 2.19332 1.50432 0.714355 3.36 0.714355C5.21568 0.714355 6.72 2.19332 6.72 4.01773V21.411C6.72 23.2354 5.21568 24.7144 3.36 24.7144C1.50432 24.7144 0 23.2354 0 21.411V4.01772Z" fill="#001529"/>
<path d="M8.64 11.838C8.64 10.0135 10.1443 8.53458 12 8.53458C13.8557 8.53458 15.36 10.0135 15.36 11.838V21.411C15.36 23.2354 13.8557 24.7144 12 24.7144C10.1443 24.7144 8.64 23.2354 8.64 21.411V11.838Z" fill="#FD6D0A"/>
<path d="M17.28 7.92784C17.28 6.10344 18.7843 4.62447 20.64 4.62447C22.4957 4.62447 24 6.10344 24 7.92784V21.411C24 23.2354 22.4957 24.7144 20.64 24.7144C18.7843 24.7144 17.28 23.2354 17.28 21.411V7.92784Z" fill="#6291F7"/>
</g>
<defs>
<clipPath id="clip0_758_151">
<rect width="24" height="24" fill="white" transform="translate(0 0.714355)"/>
</clipPath>
</defs>
</svg>
