<svg width="24" height="25" viewBox="0 0 24 25" fill="none" xmlns="http://www.w3.org/2000/svg">
<g clip-path="url(#clip0_758_90)">
<path d="M23.691 17.0651C24.103 17.2855 24.103 17.8888 23.691 18.1092L12.2667 24.2186C12.0996 24.308 11.9004 24.308 11.7333 24.2186L0.309046 18.1092C-0.103016 17.8888 -0.103015 17.2855 0.309047 17.0651L11.7333 10.9557C11.9004 10.8663 12.0996 10.8663 12.2667 10.9557L23.691 17.0651Z" fill="#001529"/>
<path d="M23.691 11.7636C24.103 11.984 24.103 12.5873 23.691 12.8077L12.2667 18.9171C12.0996 19.0065 11.9004 19.0065 11.7333 18.9171L0.309046 12.8077C-0.103016 12.5873 -0.103015 11.984 0.309047 11.7636L11.7333 5.65416C11.9004 5.5648 12.0996 5.5648 12.2667 5.65416L23.691 11.7636Z" fill="#FD6D0A"/>
<path d="M23.691 6.46212C24.103 6.68248 24.103 7.28582 23.691 7.50619L12.2667 13.6156C12.0996 13.705 11.9004 13.705 11.7333 13.6156L0.309046 7.50619C-0.103016 7.28582 -0.103015 6.68248 0.309047 6.46212L11.7333 0.352664C11.9004 0.263305 12.0996 0.263305 12.2667 0.352664L23.691 6.46212Z" fill="#6291F7"/>
</g>
<defs>
<clipPath id="clip0_758_90">
<rect width="24" height="24" fill="white" transform="translate(0 0.285645)"/>
</clipPath>
</defs>
</svg>
