<svg width="24" height="25" viewBox="0 0 24 25" fill="none" xmlns="http://www.w3.org/2000/svg">
<path d="M14.1859 3.29109C17.4311 6.5363 17.4311 11.7978 14.1859 15.043C10.9407 18.2883 5.67912 18.2883 2.43391 15.043C-0.811303 11.7978 -0.811303 6.5363 2.43391 3.29109C5.67912 0.0458744 10.9407 0.0458744 14.1859 3.29109Z" fill="#6291F7"/>
<path d="M8.96462 10.764C8.81126 10.1916 9.33501 9.66783 9.90738 9.8212L23.4296 13.4445C24.002 13.5978 24.1937 14.3133 23.7747 14.7323L13.8757 24.6312C13.4567 25.0502 12.7413 24.8585 12.5879 24.2862L8.96462 10.764Z" fill="#FD6D0A"/>
<path d="M16.2798 11.5281C15.8998 12.8147 15.2021 14.0274 14.1868 15.0427C13.1716 16.0579 11.9592 16.7555 10.6729 17.1355L8.96555 10.7636C8.81218 10.1913 9.33594 9.66751 9.90831 9.82088L16.2798 11.5281Z" fill="#001529"/>
</svg>
