<svg width="24" height="25" viewBox="0 0 24 25" fill="none" xmlns="http://www.w3.org/2000/svg">
<g clip-path="url(#clip0_758_168)">
<path d="M21.6597 2.08205C24.1183 4.27333 24.3366 8.04469 22.1475 10.5056C19.9583 12.9666 16.1906 13.1851 13.7321 10.9939C11.2735 8.80258 11.0551 5.03122 13.2443 2.57029C15.4335 0.109363 19.2012 -0.109231 21.6597 2.08205Z" fill="#001529"/>
<path d="M10.9245 14.1492C13.383 16.3405 13.6014 20.1118 11.4122 22.5728C9.22307 25.0337 5.45537 25.2523 2.99682 23.061C0.538278 20.8697 0.319896 17.0984 2.50905 14.6374C4.69821 12.1765 8.46592 11.9579 10.9245 14.1492Z" fill="#6291F7"/>
<path d="M12.4088 12.48C13.8429 13.7582 13.9703 15.9582 12.6933 17.3937C11.4163 18.8292 9.2185 18.9568 7.78434 17.6785C6.35019 16.4003 6.2228 14.2003 7.49981 12.7648C8.77682 11.3292 10.9746 11.2017 12.4088 12.48Z" fill="#2789FD"/>
</g>
<defs>
<clipPath id="clip0_758_168">
<rect width="24" height="24" fill="white" transform="translate(0 0.571533)"/>
</clipPath>
</defs>
</svg>
